<?xml version="1.0" encoding="UTF-8"?>
<svg width="18px" height="16px" viewBox="0 0 18 16" version="1.1" xmlns="http://www.w3.org/2000/svg" xmlns:xlink="http://www.w3.org/1999/xlink">
    <!-- Generator: sketchtool 64 (101010) - https://sketch.com -->
    <title>F9DAE0AC-0FF7-42EB-B780-C6D2BACE24E4</title>
    <desc>Created with sketchtool.</desc>
    <g id="Homepage" stroke="none" stroke-width="1" fill="none" fill-rule="evenodd">
        <g id="3-Grid-View" transform="translate(-212.000000, -451.000000)" fill="#333333" fill-rule="nonzero" stroke="#333333">
            <g id="Group-7" transform="translate(200.000000, 452.000000)">
                <g id="add" transform="translate(13.000000, 0.000000)">
                    <path d="M15.245614,6.66666667 L8.36090226,6.66666667 L8.36090226,6.66666667 L8.36090226,0.360902256 C8.36090226,0.161581444 8.19932081,-3.66146392e-17 8,0 C7.80067919,5.67711971e-16 7.63909774,0.161581444 7.63909774,0.360902256 L7.63909774,6.66666667 L7.63909774,6.66666667 L0.754385965,6.66666667 C0.570291048,6.66666667 0.421052632,6.81590508 0.421052632,7 C0.421052632,7.18409492 0.570291048,7.33333333 0.754385965,7.33333333 L7.63909774,7.33333333 L7.63909774,7.33333333 L7.63909774,13.6390977 C7.63909774,13.8384186 7.80067919,14 8,14 C8.19932081,14 8.36090226,13.8384186 8.36090226,13.6390977 L8.36090226,7.33333333 L8.36090226,7.33333333 L15.245614,7.33333333 C15.429709,7.33333333 15.5789474,7.18409492 15.5789474,7 C15.5789474,6.81590508 15.429709,6.66666667 15.245614,6.66666667 Z" id="Path"></path>
                </g>
            </g>
        </g>
    </g>
</svg>