<?xml version="1.0" encoding="UTF-8"?>
<svg width="25px" height="25px" viewBox="0 0 25 25" version="1.1" xmlns="http://www.w3.org/2000/svg" xmlns:xlink="http://www.w3.org/1999/xlink">
    <!-- Generator: sketchtool 64 (101010) - https://sketch.com -->
    <title>1D116EAA-C91D-4C9D-80AC-BEEBA49E7C30</title>
    <desc>Created with sketchtool.</desc>
    <g id="Homepage" stroke="none" stroke-width="1" fill="none" fill-rule="evenodd">
        <g id="7-My-rooms" transform="translate(-32.000000, -261.000000)" fill="#FFFFFF">
            <g id="noun_CPU_2167448" transform="translate(32.000000, 261.000000)">
                <path d="M6.94444444,9.72222222 C6.94444444,8.18809722 8.18809722,6.94444444 9.72222222,6.94444444 L15.2777778,6.94444444 C16.8119444,6.94444444 18.0555556,8.18809722 18.0555556,9.72222222 L18.0555556,15.2777778 C18.0555556,16.8119444 16.8119444,18.0555556 15.2777778,18.0555556 L9.72222222,18.0555556 C8.18809722,18.0555556 6.94444444,16.8119444 6.94444444,15.2777778 L6.94444444,9.72222222 Z M15.2777778,8.33333333 C16.0448611,8.33333333 16.6666667,8.95516667 16.6666667,9.72222222 L16.6666667,15.2777778 C16.6666667,16.0448611 16.0448611,16.6666667 15.2777778,16.6666667 L9.72222222,16.6666667 C8.95516667,16.6666667 8.33333333,16.0448611 8.33333333,15.2777778 L8.33333333,9.72222222 C8.33333333,8.95516667 8.95516667,8.33333333 9.72222222,8.33333333 L15.2777778,8.33333333 Z" id="Shape"></path>
                <path d="M22.2222222,6.94444444 L22.2222222,5.55555556 C22.2222222,4.02143056 20.9786111,2.77777778 19.4444444,2.77777778 L18.0555556,2.77777778 L18.0555556,0.694444444 C18.0555556,0.310916667 17.7445833,0 17.3611111,0 C16.9776389,0 16.6666667,0.310916667 16.6666667,0.694444444 L16.6666667,2.77777778 L13.1944444,2.77777778 L13.1944444,0.694444444 C13.1944444,0.310916667 12.8834722,0 12.5,0 C12.1165278,0 11.8055556,0.310916667 11.8055556,0.694444444 L11.8055556,2.77777778 L8.33333333,2.77777778 L8.33333333,0.694444444 C8.33333333,0.310916667 8.02241667,0 7.63888889,0 C7.25536111,0 6.94444444,0.310916667 6.94444444,0.694444444 L6.94444444,2.77777778 L5.55555556,2.77777778 C4.02143056,2.77777778 2.77777778,4.02143056 2.77777778,5.55555556 L2.77777778,6.94444444 L0.694444444,6.94444444 C0.310916667,6.94444444 0,7.25536111 0,7.63888889 C0,8.02241667 0.310916667,8.33333333 0.694444444,8.33333333 L2.77777778,8.33333333 L2.77777778,11.8055556 L0.694444444,11.8055556 C0.310916667,11.8055556 0,12.1165278 0,12.5 C0,12.8834722 0.310916667,13.1944444 0.694444444,13.1944444 L2.77777778,13.1944444 L2.77777778,16.6666667 L0.694444444,16.6666667 C0.310916667,16.6666667 0,16.9776389 0,17.3611111 C0,17.7445833 0.310916667,18.0555556 0.694444444,18.0555556 L2.77777778,18.0555556 L2.77777778,19.4444444 C2.77777778,20.9786111 4.02143056,22.2222222 5.55555556,22.2222222 L6.94444444,22.2222222 L6.94444444,24.3055556 C6.94444444,24.6890278 7.25536111,25 7.63888889,25 C8.02241667,25 8.33333333,24.6890278 8.33333333,24.3055556 L8.33333333,22.2222222 L11.8055556,22.2222222 L11.8055556,24.3055556 C11.8055556,24.6890278 12.1165278,25 12.5,25 C12.8834722,25 13.1944444,24.6890278 13.1944444,24.3055556 L13.1944444,22.2222222 L16.6666667,22.2222222 L16.6666667,24.3055556 C16.6666667,24.6890278 16.9776389,25 17.3611111,25 C17.7445833,25 18.0555556,24.6890278 18.0555556,24.3055556 L18.0555556,22.2222222 L19.4444444,22.2222222 C20.9786111,22.2222222 22.2222222,20.9786111 22.2222222,19.4444444 L22.2222222,18.0555556 L24.3055556,18.0555556 C24.6890278,18.0555556 25,17.7445833 25,17.3611111 C25,16.9776389 24.6890278,16.6666667 24.3055556,16.6666667 L22.2222222,16.6666667 L22.2222222,13.1944444 L24.3055556,13.1944444 C24.6890278,13.1944444 25,12.8834722 25,12.5 C25,12.1165278 24.6890278,11.8055556 24.3055556,11.8055556 L22.2222222,11.8055556 L22.2222222,8.33333333 L24.3055556,8.33333333 C24.6890278,8.33333333 25,8.02241667 25,7.63888889 C25,7.25536111 24.6890278,6.94444444 24.3055556,6.94444444 L22.2222222,6.94444444 Z M5.55555556,4.16666667 C4.7885,4.16666667 4.16666667,4.7885 4.16666667,5.55555556 L4.16666667,19.4444444 C4.16666667,20.2115278 4.7885,20.8333333 5.55555556,20.8333333 L19.4444444,20.8333333 C20.2115278,20.8333333 20.8333333,20.2115278 20.8333333,19.4444444 L20.8333333,5.55555556 C20.8333333,4.7885 20.2115278,4.16666667 19.4444444,4.16666667 L5.55555556,4.16666667 Z" id="Shape"></path>
            </g>
        </g>
    </g>
</svg>