<?xml version="1.0" encoding="UTF-8"?>
<svg width="127px" height="127px" viewBox="0 0 127 127" version="1.1" xmlns="http://www.w3.org/2000/svg" xmlns:xlink="http://www.w3.org/1999/xlink">
    <!-- Generator: sketchtool 64 (101010) - https://sketch.com -->
    <title>FD3C2474-5520-481F-94E9-8A47EF0C09C5</title>
    <desc>Created with sketchtool.</desc>
    <defs>
        <linearGradient x1="100%" y1="0%" x2="45.9510216%" y2="100%" id="linearGradient-1">
            <stop stop-color="#05BDFF" offset="0%"></stop>
            <stop stop-color="#05BDFF" offset="100%"></stop>
        </linearGradient>
        <path d="M12,0 L113,0 C119.627417,-1.21743675e-15 125,5.372583 125,12 L125,113 C125,119.627417 119.627417,125 113,125 L12,125 C5.372583,125 8.11624501e-16,119.627417 0,113 L0,12 C-8.11624501e-16,5.372583 5.372583,1.21743675e-15 12,0 Z" id="path-2"></path>
    </defs>
    <g id="Homepage" stroke="none" stroke-width="1" fill="none" fill-rule="evenodd">
        <g id="7-My-rooms" transform="translate(-15.000000, -463.000000)">
            <g id="Bitmap" transform="translate(16.000000, 464.000000)">
                <mask id="mask-3" fill="white">
                    <use xlink:href="#path-2"></use>
                </mask>
                <use id="Mask" stroke="#05BDFF" fill="url(#linearGradient-1)" xlink:href="#path-2"></use>
                <g id="noun_pattern_1440988" opacity="0.145939" mask="url(#mask-3)" stroke="#000000" stroke-linecap="square">
                    <g transform="translate(36.893048, -28.000000)">
                        <path d="M51.6203087,0 L0.106951872,47.7260184 L19.7883149,125 L83.4522967,125 L103.106952,47.7260184 L51.6203087,0 Z M78.0313272,124.829798 L18.2127911,118.361925 L4.56668116,43.7772337 L55.9197915,4.15312599 L101.344474,54.2619741 L78.0313272,124.829798 Z" id="Shape" stroke-width="0.25"></path>
                        <path d="M60.3066587,9 L10.1069519,40.4407737 L17.8563997,111.505136 L72.869792,124 L99.1069519,60.6430141 L60.3066587,9 Z M67.6065035,122.64191 L17.2480858,104.680519 L14.9734634,37.554729 L63.9301679,14.059 L96.4621589,66.6527856 L67.6065035,122.64191 Z" id="Shape" stroke-width="0.25"></path>
                        <path d="M66.9827909,19 L20.0067332,34.7473439 L17.1069519,97.1595888 L62.2904581,120 L93.1069519,71.7060091 L66.9827909,19 Z M57.3608452,117.318867 L17.581512,90.3040784 L25.2262781,33.1861316 L69.7243856,24.9392034 L89.6008651,76.9324358 L57.3608452,117.318867 Z" id="Shape" stroke-width="0.25"></path>
                        <path d="M72.4276142,31 L30.9940296,32.2255594 L19.1069519,83.5303288 L53.1604421,114 L86.1069519,81.5558163 L72.4276142,31 Z M48.8642636,109.880659 L20.8201358,76.9597695 L36.3446173,32.2936461 L74.008997,37.6046026 L81.7580529,85.5730273 L48.8642636,109.880659 Z" id="Shape" stroke-width="0.25"></path>
                        <path d="M75.0188389,45.1636398 L41.635621,34 L23.1069519,71.5874291 L45.0452393,106 L77.1069519,89.6472203 L75.0188389,45.1636398 Z M41.7941522,100.469386 L26.1729959,65.8862231 L46.7897779,36.014263 L75.1245778,52.0939265 L72.0584566,91.9344903 L41.7941522,100.469386 Z" id="Shape" stroke-width="0.25"></path>
                        <path d="M57.1069519,81 L54.1446647,60 L42.1069519,73.9476565 L57.1069519,81 Z M54.4084761,62.1279155 L55.6031821,80.2401084 L43.3506874,72.5746604 L54.4084761,62.1279155 Z" id="Shape" stroke-width="0.1"></path>
                        <polygon id="Path" stroke-width="0.1" points="52.1069519 72.3984281 50.5837474 71 50.1069519 73"></polygon>
                        <path d="M51.863568,76 L54.1069519,69 L48.1069519,70.0867221 L51.863568,76 Z M51.0094498,74.460038 L49.6060466,69.9503528 L53.4583541,70.6894586 L51.0094498,74.460038 Z" id="Shape" stroke-width="0.1"></path>
                        <path d="M61.1069519,81 L53.5316004,56 L39.1069519,76.2994445 L61.1069519,81 Z M54.0905108,57.9578038 L59.4017623,80.5977284 L40.2533114,74.7439122 L54.0905108,57.9578038 Z" id="Shape" stroke-width="0.1"></path>
                        <path d="M54.7614506,79 L55.1069519,64 L45.1069519,71.1045244 L54.7614506,79 Z M53.402529,77.7981445 L46.5733711,70.1511228 L54.9994542,66.150081 L53.402529,77.7981445 Z" id="Shape" stroke-width="0.1"></path>
                        <path d="M65.1069519,82 L52.4080464,52 L37.1069519,80.2009705 L65.1069519,82 Z M53.1853705,53.9085895 L63.3403288,81.8555181 L38.096251,78.4368629 L53.1853705,53.9085895 Z" id="Shape" stroke-width="0.1"></path>
                        <path d="M51.0718915,39 L29.1069519,60.7552164 L38.6045683,94 L66.4285723,92.8102879 L74.1069519,58.7837037 L51.0718915,39 Z M36.9162213,82.6951038 L51.6069519,50.3048871 L66.2977606,82.6951038 L36.9162213,82.6951038 Z" id="Shape" stroke-width="0.25"></path>
                    </g>
                </g>
            </g>
        </g>
    </g>
</svg>