<?xml version="1.0" encoding="UTF-8"?>
<svg width="22px" height="22px" viewBox="0 0 22 22" version="1.1" xmlns="http://www.w3.org/2000/svg" xmlns:xlink="http://www.w3.org/1999/xlink">
    <!-- Generator: sketchtool 64 (101010) - https://sketch.com -->
    <title>0C903DA6-3B44-4B19-9A08-13A7827B2FBE</title>
    <desc>Created with sketchtool.</desc>
    <g id="Homepage" stroke="none" stroke-width="1" fill="none" fill-rule="evenodd">
        <g id="4-List-View" transform="translate(-170.000000, -1614.000000)" fill="#FFFFFF" fill-rule="nonzero" stroke="#FFFFFF">
            <g id="Group-5" transform="translate(0.000000, 1583.000000)">
                <g id="add" transform="translate(171.000000, 31.698486)">
                    <path d="M19.5238095,9.52380952 L10.4761905,9.52380952 L10.4761905,9.52380952 L10.4761905,0.476190476 C10.4761905,0.213197738 10.2629927,-4.83109822e-17 10,0 C9.73700726,4.83109822e-17 9.52380952,0.213197738 9.52380952,0.476190476 L9.52380952,9.52380952 L9.52380952,9.52380952 L0.476190476,9.52380952 C0.213197738,9.52380952 -3.22073215e-17,9.73700726 0,10 C3.22073215e-17,10.2629927 0.213197738,10.4761905 0.476190476,10.4761905 L9.52380952,10.4761905 L9.52380952,10.4761905 L9.52380952,19.5238095 C9.52380952,19.7868023 9.73700726,20 10,20 C10.2629927,20 10.4761905,19.7868023 10.4761905,19.5238095 L10.4761905,10.4761905 L10.4761905,10.4761905 L19.5238095,10.4761905 C19.7868023,10.4761905 20,10.2629927 20,10 C20,9.73700726 19.7868023,9.52380952 19.5238095,9.52380952 Z" id="Path"></path>
                </g>
            </g>
        </g>
    </g>
</svg>