<?xml version="1.0" encoding="UTF-8"?>
<svg width="13px" height="17px" viewBox="0 0 13 17" version="1.1" xmlns="http://www.w3.org/2000/svg" xmlns:xlink="http://www.w3.org/1999/xlink">
    <!-- Generator: sketchtool 64 (101010) - https://sketch.com -->
    <title>DE0C074A-A024-4CD1-AE99-DAAF891A87C2</title>
    <desc>Created with sketchtool.</desc>
    <g id="Homepage" stroke="none" stroke-width="1" fill="none" fill-rule="evenodd">
        <g id="4-List-View" transform="translate(-246.000000, -1613.000000)" fill="#9DA7B6" fill-rule="nonzero">
            <g id="Group-5" transform="translate(0.000000, 1583.000000)">
                <g id="book" transform="translate(246.000000, 30.698486)">
                    <path d="M12.6885246,0.403278689 C12.6885246,0.180327869 12.5081967,0 12.2852459,0 L2.50163934,0 C1.12786885,0 0.0131147541,1.11803279 0.0131147541,2.48852459 L0.0131147541,13.495082 C0.0131147541,14.8688525 1.13114754,15.9836066 2.50163934,15.9836066 L12.2885246,15.9836066 C12.5114754,15.9836066 12.6918033,15.8032787 12.6918033,15.5803279 L12.6918033,4.57704918 C12.6918033,4.35409836 12.5114754,4.17377049 12.2885246,4.17377049 L2.50163934,4.17377049 C1.57377049,4.17377049 0.816393443,3.41639344 0.816393443,2.48852459 C0.816393443,1.56065574 1.57377049,0.803278689 2.50163934,0.803278689 L12.2885246,0.803278689 C12.5081967,0.803278689 12.6885246,0.62295082 12.6885246,0.403278689 Z M2.50163934,4.97704918 L11.8852459,4.97704918 L11.8852459,15.1803279 L2.50163934,15.1803279 C1.57377049,15.1803279 0.816393443,14.4229508 0.816393443,13.495082 L0.816393443,4.31803279 C1.25901639,4.72786885 1.85245902,4.97704918 2.50163934,4.97704918 Z" id="Shape"></path>
                    <path d="M2.63934426,2.12459016 C2.41639344,2.12459016 2.23606557,2.30491803 2.23606557,2.52786885 C2.23606557,2.75081967 2.41639344,2.93114754 2.63934426,2.93114754 L11.8229508,2.93114754 C12.0459016,2.93114754 12.2262295,2.75081967 12.2262295,2.52786885 C12.2262295,2.30491803 12.0459016,2.12459016 11.8229508,2.12459016 L2.63934426,2.12459016 Z" id="Path"></path>
                </g>
            </g>
        </g>
    </g>
</svg>