<?xml version="1.0" encoding="UTF-8"?>
<svg width="16px" height="17px" viewBox="0 0 16 17" version="1.1" xmlns="http://www.w3.org/2000/svg" xmlns:xlink="http://www.w3.org/1999/xlink">
    <!-- Generator: sketchtool 64 (101010) - https://sketch.com -->
    <title>B27D32D7-A904-4502-90AA-E819F95A97A9</title>
    <desc>Created with sketchtool.</desc>
    <g id="Homepage" stroke="none" stroke-width="1" fill="none" fill-rule="evenodd">
        <g id="4-List-View" transform="translate(-103.000000, -1613.000000)" fill="#9DA7B6" fill-rule="nonzero">
            <g id="Group-5" transform="translate(0.000000, 1583.000000)">
                <g id="heart" transform="translate(103.000000, 30.698486)">
                    <path d="M7.46232179,12.4219959 C7.60570265,12.5653768 7.79144603,12.6435845 7.99348269,12.6435845 C8.19551935,12.6435845 8.38452138,12.5653768 8.52464358,12.4219959 L11.6627291,9.28391039 C12.1743381,8.77230143 12.4578411,8.09124236 12.4578411,7.37107943 C12.4578411,6.64765784 12.1775967,5.96659878 11.6659878,5.45498982 C11.1543788,4.94338086 10.4733198,4.66313646 9.75315682,4.66313646 C9.10142566,4.66313646 8.48553971,4.89124236 7.99348269,5.31160896 C7.50142566,4.88798371 6.88228106,4.6598778 6.2305499,4.6598778 C5.50712831,4.6598778 4.8293279,4.9401222 4.31771894,5.45173116 C3.80610998,5.96334012 3.52586558,6.64439919 3.52586558,7.36782077 C3.52586558,8.09124236 3.80936864,8.76904277 4.3209776,9.28065173 L7.46232179,12.4219959 Z M4.87820774,6.01221996 C5.23991853,5.65050916 5.71568228,5.45498982 6.22729124,5.45498982 C6.7389002,5.45498982 7.21792261,5.65376782 7.5796334,6.01547862 L7.70997963,6.14582485 C7.86639511,6.30224033 8.11731161,6.30224033 8.27372709,6.14582485 L8.40081466,6.01873727 C8.76252546,5.65702648 9.24154786,5.45824847 9.75315682,5.45824847 C10.2615071,5.45824847 10.7405295,5.65702648 11.1022403,6.01873727 C11.4639511,6.38044807 11.6627291,6.85947047 11.6595099,7.36782077 C11.6595099,7.87942974 11.4606925,8.35845214 11.0989817,8.72016293 L7.99348269,11.8256619 L4.8814664,8.71364562 C4.5197556,8.35193483 4.3209776,7.87291242 4.3209776,7.36456212 C4.3209776,6.85295316 4.5197556,6.37393075 4.87820774,6.01221996 Z" id="Shape"></path>
                    <path d="M7.99022403,15.9804481 C12.3959267,15.9804481 15.9804481,12.3959267 15.9804481,7.99022403 C15.9804481,3.58452138 12.3959267,0 7.99022403,0 C3.58452138,0 0,3.58452138 0,7.99022403 C0,12.3959267 3.58452138,15.9804481 7.99022403,15.9804481 Z M7.99022403,0.798370672 C11.9560081,0.798370672 15.1820774,4.02443992 15.1820774,7.99022403 C15.1820774,11.9560081 11.9560081,15.1820774 7.99022403,15.1820774 C4.02443992,15.1820774 0.798370672,11.9560081 0.798370672,7.99022403 C0.798370672,4.02443992 4.02443992,0.798370672 7.99022403,0.798370672 Z" id="Shape"></path>
                </g>
            </g>
        </g>
    </g>
</svg>