<?xml version="1.0" encoding="UTF-8"?>
<svg width="17px" height="17px" viewBox="0 0 17 17" version="1.1" xmlns="http://www.w3.org/2000/svg" xmlns:xlink="http://www.w3.org/1999/xlink">
    <!-- Generator: sketchtool 64 (101010) - https://sketch.com -->
    <title>00384C44-A366-4A76-AC0A-2824672A7F4C</title>
    <desc>Created with sketchtool.</desc>
    <g id="Homepage" stroke="none" stroke-width="1" fill="none" fill-rule="evenodd">
        <g id="4-List-View" transform="translate(-30.000000, -1613.000000)" fill="#05BDFF" fill-rule="nonzero">
            <g id="Group-5" transform="translate(0.000000, 1583.000000)">
                <g id="house" transform="translate(30.000000, 30.698486)">
                    <path d="M16.5748989,7.20708817 L8.70221075,0.167088172 C8.68844731,0.153324731 8.67468387,0.143002151 8.65747957,0.13267957 C8.48543656,-0.0324817204 8.21016774,-0.0393634409 8.02780215,0.122356989 L0.155113978,7.16235699 C-0.0375741935,7.3344 -0.0513376344,7.62687312 0.117264516,7.81956129 C0.210167742,7.9227871 0.33747957,7.9744 0.464791398,7.9744 C0.574898925,7.9744 0.685006452,7.93655054 0.774468817,7.85741075 L2.19210323,6.58773333 L2.19210323,6.83547527 L2.19210323,10.510314 L2.19210323,14.7976258 C2.19210323,15.4410667 2.71511398,15.9675183 3.3619957,15.9675183 C3.37231828,15.9675183 3.3792,15.9675183 3.38952258,15.9675183 C3.39984516,15.9675183 3.40672688,15.9675183 3.41704946,15.9675183 L5.84629677,15.9675183 C6.45188817,15.9675183 6.94393118,15.4754753 6.94393118,14.8698839 L6.94393118,10.6961204 C6.94393118,10.6032172 7.01963011,10.5275183 7.11253333,10.5275183 L9.62092043,10.5275183 C9.71382366,10.5275183 9.78952258,10.6032172 9.78952258,10.6961204 L9.78952258,14.8698839 C9.78952258,15.4754753 10.2815656,15.9675183 10.887157,15.9675183 L13.3714581,15.9675183 C14.0252215,15.9675183 14.5413505,15.3240774 14.5413505,14.5017118 L14.5413505,10.6754753 L14.5413505,9.5055828 L14.5413505,6.63246452 L15.9589849,7.90214194 C16.0484473,7.98128172 16.1585548,8.01913118 16.2686624,8.01913118 C16.3959742,8.01913118 16.523286,7.96751828 16.6161892,7.86429247 C16.7813505,7.6716043 16.7641462,7.37913118 16.5748989,7.20708817 Z M13.6088774,9.50214194 L13.6088774,10.6720344 L13.6088774,14.4948301 C13.6088774,14.8285935 13.4437161,15.0316043 13.3680172,15.0316043 L10.8837161,15.0316043 C10.7908129,15.0316043 10.715114,14.9559054 10.715114,14.8630022 L10.715114,10.6961204 C10.715114,10.090529 10.223071,9.59848602 9.61747957,9.59848602 L7.10909247,9.59848602 C6.50350108,9.59848602 6.01145806,10.090529 6.01145806,10.6961204 L6.01145806,14.8698839 C6.01145806,14.9627871 5.93575914,15.038486 5.84285591,15.038486 L3.4136086,15.038486 C3.40328602,15.038486 3.3964043,15.038486 3.38608172,15.038486 C3.37575914,15.038486 3.36887742,15.038486 3.35855484,15.038486 C3.22780215,15.038486 3.11769462,14.9318194 3.11769462,14.7976258 L3.11769462,10.5068731 L3.11769462,6.83203441 L3.11769462,5.75504516 L8.34092043,1.08923871 L13.6088774,5.79977634 L13.6088774,9.50214194 L13.6088774,9.50214194 Z" id="Shape"></path>
                </g>
            </g>
        </g>
    </g>
</svg>