<?xml version="1.0" encoding="UTF-8"?>
<svg width="21px" height="25px" viewBox="0 0 21 25" version="1.1" xmlns="http://www.w3.org/2000/svg" xmlns:xlink="http://www.w3.org/1999/xlink">
    <!-- Generator: sketchtool 64 (101010) - https://sketch.com -->
    <title>85C23B4A-8366-4593-B4F1-BAD3D585C306</title>
    <desc>Created with sketchtool.</desc>
    <g id="Homepage" stroke="none" stroke-width="1" fill="none" fill-rule="evenodd">
        <g id="3-Grid-View" transform="translate(-325.000000, -20.000000)">
            <g id="Group-4" transform="translate(325.000000, 21.000000)">
                <g id="noun_notification_2846837" transform="translate(0.000000, 2.272727)" fill="#9DA7B6" fill-rule="nonzero">
                    <g id="Group" transform="translate(0.028898, 0.000000)">
                        <path d="M16.4428162,8.68500667 C16.4428162,8.98287994 16.4428162,9.28075322 16.4428162,9.5786265 C16.4428162,10.2944115 16.4428162,11.0101966 16.4428162,11.7259816 C16.4428162,12.5929262 16.4428162,13.4576479 16.4428162,14.3245925 C16.4428162,15.0737216 16.4428162,15.8228506 16.4428162,16.5719797 C16.4428162,16.9343181 16.4317015,17.2988794 16.4428162,17.6612178 C16.4428162,17.6656637 16.4428162,17.6723325 16.4428162,17.6767783 C16.6651097,17.4544849 16.8874032,17.2321914 17.1096967,17.0098979 C16.9652059,17.0098979 16.8229381,17.0098979 16.6784473,17.0098979 C16.2894337,17.0098979 15.9004201,17.0098979 15.5114065,17.0098979 C14.9378893,17.0098979 14.3621491,17.0098979 13.7886319,17.0098979 C13.0839616,17.0098979 12.3815141,17.0098979 11.6768438,17.0098979 C10.9099312,17.0098979 10.1407958,17.0098979 9.37388322,17.0098979 C8.595856,17.0098979 7.81782878,17.0098979 7.03757863,17.0098979 C6.31512479,17.0098979 5.59267095,17.0098979 4.8702171,17.0098979 C4.25891,17.0098979 3.64760291,17.0098979 3.03851874,17.0098979 C2.5961547,17.0098979 2.15601359,17.0098979 1.71364954,17.0098979 C1.50469366,17.0098979 1.29573778,17.005452 1.08900483,17.0098979 C1.08011309,17.0098979 1.07122135,17.0098979 1.06232961,17.0098979 C1.2846231,17.2321914 1.50691659,17.4544849 1.72921008,17.6767783 C1.72921008,17.347784 1.72921008,17.0187896 1.72921008,16.6897953 C1.72921008,15.911768 1.72921008,15.1337408 1.72921008,14.3557136 C1.72921008,13.4398644 1.72921008,12.5240152 1.72921008,11.6081661 C1.72921008,10.8768205 1.72921008,10.1454749 1.72921008,9.41412931 C1.72921008,8.97843407 1.71809541,8.5405159 1.7492165,8.10482066 C1.76033117,7.94699228 1.77811465,7.78694097 1.79812107,7.63133552 C1.78922933,7.69135476 1.78256052,7.74915107 1.77366878,7.80917031 C1.86925498,7.10227702 2.05598151,6.4131672 2.33384838,5.75517846 C2.31161903,5.8085289 2.28938968,5.86187934 2.26716033,5.91522978 C2.42498871,5.54399965 2.60949231,5.18388419 2.82289406,4.84155222 C2.92514906,4.6748321 3.03407287,4.51255785 3.14966549,4.35250654 C3.17856364,4.31249371 3.20746179,4.27248088 3.23635995,4.23469099 C3.25192049,4.21468458 3.26970397,4.18134055 3.28971039,4.16355707 C3.29193332,4.16133414 3.17856364,4.30582491 3.23858288,4.22802219 C3.30527093,4.14355066 3.37195898,4.06130207 3.44309289,3.97905348 C3.69650747,3.6811802 3.96992847,3.40331334 4.26335587,3.14545289 C4.33671272,3.08098778 4.41006958,3.0187456 4.48564936,2.95650342 C4.52343926,2.92538233 4.56122915,2.89426124 4.59901904,2.86536309 C4.61457959,2.85424842 4.63014013,2.84091081 4.64570068,2.82979613 C4.46342001,2.9742869 4.58568143,2.87647776 4.6279172,2.84535668 C4.78352264,2.72754113 4.94579689,2.61639438 5.11029407,2.51191644 C5.49041594,2.2673936 5.89276716,2.05621479 6.30845598,1.87837999 C6.25510555,1.90060934 6.20175511,1.92283869 6.14840467,1.94506804 C6.80417047,1.66720118 7.49550322,1.48047465 8.20239652,1.38488844 C8.14237728,1.39378018 8.08458097,1.40044899 8.02456173,1.40934073 C8.72256329,1.3182004 9.43167952,1.3182004 10.1296811,1.40934073 C10.0696618,1.40044899 10.0118655,1.39378018 9.95184629,1.38488844 C10.6565167,1.48047465 11.3434035,1.66720118 11.9969464,1.94062217 C11.943596,1.91839282 11.8902455,1.89616347 11.8368951,1.87393412 C12.2103482,2.0317625 12.5726865,2.2162661 12.9194644,2.42966785 C13.0906304,2.53414579 13.2595734,2.64751547 13.4240706,2.76533102 C13.4618605,2.79200624 13.4974275,2.81868146 13.5352174,2.84757961 C13.5574467,2.86536309 13.581899,2.88092363 13.6041283,2.89870711 C13.5996825,2.89648418 13.4685293,2.79200624 13.5507779,2.85869429 C13.6308036,2.9231594 13.7130521,2.98762451 13.7908549,3.05431256 C14.0976199,3.31439594 14.3843785,3.59670867 14.6489077,3.89902782 C14.708927,3.9679388 14.7689462,4.03907272 14.8267425,4.11020664 C14.8556407,4.14577359 14.8845388,4.18134055 14.913437,4.21690751 C14.980125,4.2991561 14.8756471,4.16800294 14.8734242,4.16355707 C14.8956535,4.19023229 14.9156599,4.21913045 14.9356663,4.24580566 C15.0557048,4.40807991 15.1712974,4.5725771 15.2802213,4.74374308 C15.526967,5.13053376 15.7381458,5.53510791 15.9182036,5.95746554 C15.8959742,5.9041151 15.8737449,5.85076466 15.8515155,5.79741423 C16.1204906,6.43984241 16.3049942,7.11561462 16.3983575,7.80694738 C16.3894658,7.74692814 16.382797,7.68913183 16.3739052,7.62911259 C16.4183639,7.9803363 16.4428162,8.33156002 16.4428162,8.68500667 C16.4428162,9.03400745 16.7495812,9.36744768 17.1096967,9.35188714 C17.4698121,9.33632659 17.7765771,9.05845973 17.7765771,8.68500667 C17.7721313,6.9800156 17.2586333,5.27947039 16.2983254,3.87012967 C15.3602469,2.49191003 14.0509383,1.37599671 12.5126673,0.722453844 C11.6768438,0.366784259 10.8187909,0.144490769 9.9140564,0.0489045679 C9.1182457,-0.0355669584 8.31798914,0.00889173961 7.53107018,0.146713704 C6.0995001,0.395682413 4.76573916,1.0381106 3.63204236,1.94062217 C2.55614187,2.79645211 1.67585965,3.93904065 1.13346353,5.20389061 C0.648863721,6.32869567 0.395449142,7.51574291 0.395449142,8.74058004 C0.395449142,9.26296974 0.395449142,9.78535944 0.395449142,10.3077491 C0.395449142,11.2480506 0.395449142,12.1861291 0.395449142,13.1264306 C0.395449142,14.0711779 0.395449142,15.0137023 0.395449142,15.9584497 C0.395449142,16.5075146 0.395449142,17.0543566 0.395449142,17.6034215 C0.395449142,17.6300967 0.395449142,17.654549 0.395449142,17.6812242 C0.395449142,18.0413397 0.699991224,18.3481047 1.06232961,18.3481047 C1.20682038,18.3481047 1.34908822,18.3481047 1.49357898,18.3481047 C1.88259259,18.3481047 2.2716062,18.3481047 2.66061981,18.3481047 C3.23413701,18.3481047 3.80987715,18.3481047 4.38339436,18.3481047 C5.08806472,18.3481047 5.79051215,18.3481047 6.49518252,18.3481047 C7.26209506,18.3481047 8.03123053,18.3481047 8.79814308,18.3481047 C9.57617029,18.3481047 10.3541975,18.3481047 11.1344477,18.3481047 C11.8569015,18.3481047 12.5793553,18.3481047 13.3018092,18.3481047 C13.9131163,18.3481047 14.5244234,18.3481047 15.1335075,18.3481047 C15.5758716,18.3481047 16.0160127,18.3481047 16.4583768,18.3481047 C16.6673326,18.3481047 16.8740656,18.3503276 17.0830215,18.3481047 C17.0919132,18.3481047 17.1008049,18.3481047 17.1096967,18.3481047 C17.4698121,18.3481047 17.7765771,18.0435626 17.7765771,17.6812242 C17.7765771,17.3833509 17.7765771,17.0854777 17.7765771,16.7876044 C17.7765771,16.0718193 17.7765771,15.3560343 17.7765771,14.6402493 C17.7765771,13.7733047 17.7765771,12.908583 17.7765771,12.0416384 C17.7765771,11.2925093 17.7765771,10.5433802 17.7765771,9.79425118 C17.7765771,9.43191279 17.783246,9.06735147 17.7765771,8.70501308 C17.7765771,8.70056721 17.7765771,8.69389841 17.7765771,8.68945254 C17.7765771,8.34045176 17.4698121,8.00701152 17.1096967,8.02257207 C16.7495812,8.03368674 16.4428162,8.3115536 16.4428162,8.68500667 Z" id="Path"></path>
                        <path d="M11.5857034,17.6099883 C11.5834805,17.7544791 11.5745888,17.8967469 11.5545824,18.0390147 C11.5634741,17.9789955 11.5701429,17.9211992 11.5790346,17.8611799 C11.5390218,18.1368239 11.465665,18.405799 11.3567411,18.6636594 C11.3789705,18.610309 11.4011998,18.5569586 11.4234292,18.5036081 C11.3434035,18.6881117 11.2500403,18.8637236 11.1388935,19.0282208 C11.1122183,19.0682336 11.0833202,19.1082464 11.054422,19.1460363 C10.985511,19.2416225 11.0988807,19.1015776 11.0966578,19.0926859 C11.0966578,19.0993547 11.0588679,19.1393675 11.0499761,19.1482592 C10.985511,19.226062 10.9166,19.3016418 10.8454661,19.3727757 C10.7765551,19.4416867 10.7054212,19.5061518 10.6320644,19.5683939 C10.6142809,19.5839545 10.5942745,19.599515 10.576491,19.6150756 C10.5164718,19.6639801 10.714313,19.5128206 10.6298414,19.5728398 C10.5898286,19.601738 10.5520387,19.6306361 10.5120259,19.6573113 C10.3430828,19.770681 10.1608022,19.8684902 9.97407564,19.9485158 C10.0274261,19.9262865 10.0807765,19.9040571 10.134127,19.8818278 C9.8762665,19.9885286 9.60729138,20.0618855 9.32942452,20.1018983 C9.38944376,20.0930066 9.44724007,20.0863378 9.50725931,20.077446 C9.22050071,20.1152359 8.9337421,20.1152359 8.6469835,20.077446 C8.70700274,20.0863378 8.76479905,20.0930066 8.82481829,20.1018983 C8.54695143,20.0641084 8.27797631,19.9907516 8.02011586,19.8818278 C8.0734663,19.9040571 8.12681673,19.9262865 8.18016717,19.9485158 C7.99566358,19.8707131 7.82005172,19.7751269 7.6533316,19.6639801 C7.61331877,19.6373049 7.57330594,19.6084068 7.53329312,19.5795086 C7.43770691,19.5105976 7.57552888,19.6217444 7.58664355,19.6217444 C7.57552888,19.6217444 7.53996192,19.5839545 7.53107018,19.5772857 C7.45326746,19.5128206 7.37768767,19.4439096 7.30655376,19.3727757 C7.23764277,19.3038647 7.17317766,19.2327308 7.11093548,19.1593739 C7.09537494,19.1415904 7.0798144,19.121584 7.06425385,19.1038005 C7.01534928,19.0437813 7.16650886,19.2416225 7.10648961,19.1593739 C7.07759146,19.1193611 7.04869331,19.0815712 7.02201809,19.0415584 C6.90642547,18.8726153 6.80861634,18.6925576 6.72859068,18.5036081 C6.75082003,18.5569586 6.77304938,18.610309 6.79527873,18.6636594 C6.68635492,18.405799 6.61299807,18.1368239 6.57298524,17.8611799 C6.58187698,17.9211992 6.58854578,17.9789955 6.59743752,18.0390147 C6.57743111,17.8967469 6.56853937,17.7522561 6.56631643,17.6099883 C6.34402294,17.8322818 6.12172945,18.0545753 5.89943596,18.2768688 C6.61966687,18.2768688 7.33989778,18.2768688 8.06012869,18.2768688 C9.19827136,18.2768688 10.336414,18.2768688 11.4723338,18.2768688 C11.7324171,18.2768688 11.9925005,18.2768688 12.2548068,18.2768688 C12.6038076,18.2768688 12.9372479,17.9701037 12.9216873,17.6099883 C12.9061268,17.2476499 12.6282599,16.9431078 12.2548068,16.9431078 C11.5345759,16.9431078 10.814345,16.9431078 10.0941141,16.9431078 C8.95597145,16.9431078 7.81782878,16.9431078 6.68190905,16.9431078 C6.42182566,16.9431078 6.16174228,16.9431078 5.89943596,16.9431078 C5.54154344,16.9431078 5.23033256,17.2476499 5.23254365,17.6099883 C5.2392243,18.3791238 5.47040953,19.1615969 5.91944238,19.7884645 C6.39737338,20.453122 7.03313276,20.9421677 7.80226824,21.2244804 C9.25606767,21.7579848 11.0077404,21.2867226 11.9969464,20.0952295 C12.5815783,19.3905592 12.9150185,18.5302833 12.9216873,17.6099883 C12.9239103,17.2609875 12.6126994,16.9275473 12.2548068,16.9431078 C11.8880226,16.9608913 11.5879264,17.2365352 11.5857034,17.6099883 Z" id="Path"></path>
                    </g>
                </g>
                <circle id="Oval" stroke="#FFFFFF" stroke-width="1.5" fill="#E45647" cx="14.3636364" cy="5" r="5"></circle>
            </g>
        </g>
    </g>
</svg>